<?xml version="1.0"?>
<svg xmlns="http://www.w3.org/2000/svg" viewBox="0 0 64 64" width="512" height="512"><g id="Team-4" data-name="Team"><path d="M48,32a16,16,0,1,1-31.2-5c.06-.2.13-.39.2-.58a16.007,16.007,0,0,1,30,0c.07.19.14.38.2.58A15.87,15.87,0,0,1,48,32Z" style="fill:#ffd422"/><path d="M57,26.5l-2.75-.34a23.037,23.037,0,0,0-2.39-5.76l.3-.39,3.88-4.98L48.97,7.96,43.6,12.14a23.037,23.037,0,0,0-5.76-2.39L37,3H27l-.84,6.75a23.037,23.037,0,0,0-5.76,2.39L15.03,7.96,7.96,15.03l3.88,4.98.3.39a23.037,23.037,0,0,0-2.39,5.76L7,26.5,3,27V37l2.29.29,4.46.55a23.037,23.037,0,0,0,2.39,5.76l-.31.4L7.96,48.97l7.07,7.07,5.37-4.18a23.037,23.037,0,0,0,5.76,2.39L27,61H37l.84-6.75a23.037,23.037,0,0,0,5.76-2.39l5.37,4.18,7.07-7.07L52.17,44l-.31-.4a23.037,23.037,0,0,0,2.39-5.76l4.46-.55L61,37V27ZM44,42.59A16,16,0,0,1,16.8,27c.06-.2.13-.39.2-.58a16.007,16.007,0,0,1,30,0c.07.19.14.38.2.58A15.989,15.989,0,0,1,44,42.59Z" style="fill:#ff9811"/><path d="M60,41v3H44V41a6,6,0,0,1,6-6l2,2,2-2A6,6,0,0,1,60,41Z" style="fill:#ff6243"/><path d="M54,32.46V35l-2,2-2-2V32.46a3.974,3.974,0,0,0,4,0Z" style="fill:#ffb655"/><path d="M57,25v2H55.83a2.006,2.006,0,0,1-1.42-.59L53,25l-.83.83A4,4,0,0,1,49.34,27H47V25a5,5,0,0,1,10,0Z" style="fill:#787680"/><path d="M56,27v2a3.994,3.994,0,0,1-6,3.46,4.225,4.225,0,0,1-.83-.63A4.025,4.025,0,0,1,48,29V27h1.34a4,4,0,0,0,2.83-1.17L53,25l1.41,1.41a2.006,2.006,0,0,0,1.42.59Z" style="fill:#ffc477"/><path d="M20,41v3H4V41a6,6,0,0,1,6-6l2,2,2-2A6,6,0,0,1,20,41Z" style="fill:#00ccb3"/><path d="M14,32.46V35l-2,2-2-2V32.46a3.974,3.974,0,0,0,4,0Z" style="fill:#ffb655"/><path d="M17,25v2H15.83a2.006,2.006,0,0,1-1.42-.59L13,25l-.83.83A4,4,0,0,1,9.34,27H7V25a5,5,0,0,1,10,0Z" style="fill:#787680"/><path d="M16,27v2a3.994,3.994,0,0,1-6,3.46,4.225,4.225,0,0,1-.83-.63A4.025,4.025,0,0,1,8,29V27H9.34a4,4,0,0,0,2.83-1.17L13,25l1.41,1.41a2.006,2.006,0,0,0,1.42.59Z" style="fill:#ffc477"/><path d="M40,41v3H24V41a6,6,0,0,1,6-6l2,2,2-2A6,6,0,0,1,40,41Z" style="fill:#3d9ae2"/><path d="M34,32.46V35l-2,2-2-2V32.46a3.974,3.974,0,0,0,4,0Z" style="fill:#ffb655"/><path d="M37,25v2H35.83a2.006,2.006,0,0,1-1.42-.59L33,25l-.83.83A4,4,0,0,1,29.34,27H27V25a5,5,0,0,1,10,0Z" style="fill:#787680"/><path d="M36,27v2a3.994,3.994,0,0,1-6,3.46,4.225,4.225,0,0,1-.83-.63A4.025,4.025,0,0,1,28,29V27h1.34a4,4,0,0,0,2.83-1.17L33,25l1.41,1.41a2.006,2.006,0,0,0,1.42.59Z" style="fill:#ffc477"/><path d="M61.124,26.008,58,25.617V25a6.005,6.005,0,0,0-4.045-5.666l2.874-3.689a1,1,0,0,0-.082-1.322l-7.07-7.07a1,1,0,0,0-1.322-.082l-4.843,3.77A24.127,24.127,0,0,0,38.75,8.966l-.758-6.09A1,1,0,0,0,37,2H27a1,1,0,0,0-.992.876l-.758,6.09a24.092,24.092,0,0,0-4.762,1.975l-4.844-3.77a1,1,0,0,0-1.321.082l-7.07,7.07a1,1,0,0,0-.082,1.322l2.874,3.689A6.005,6.005,0,0,0,6,25v.617l-3.124.391A1,1,0,0,0,2,27V37a1,1,0,0,0,.875.992l.765.1A6.951,6.951,0,0,0,3,41v3a1,1,0,0,0,1,1H9.784L7.171,48.356a1,1,0,0,0,.082,1.321l7.07,7.07a1,1,0,0,0,1.321.082l4.844-3.77a24.092,24.092,0,0,0,4.762,1.975l.758,6.09A1,1,0,0,0,27,62H37a1,1,0,0,0,.992-.876l.758-6.09a24.127,24.127,0,0,0,4.762-1.975l4.843,3.77a1,1,0,0,0,1.322-.082l7.07-7.07a1,1,0,0,0,.082-1.321L54.216,45H60a1,1,0,0,0,1-1V41a6.951,6.951,0,0,0-.64-2.911l.766-.1A1,1,0,0,0,62,37V27A1,1,0,0,0,61.124,26.008ZM53,34.586l-1,1-1-1V33.9a5,5,0,0,0,2,0ZM52,32a3,3,0,0,1-3-3V28h.343a4.968,4.968,0,0,0,3.536-1.464L53,26.415l.707.706A2.96,2.96,0,0,0,55,27.87V29A3,3,0,0,1,52,32Zm4-7v1h-.172a1.009,1.009,0,0,1-.707-.293l-1.414-1.414a1,1,0,0,0-1.414,0l-.828.829A2.983,2.983,0,0,1,49.343,26H48V25a4,4,0,0,1,8,0ZM8,25a4,4,0,0,1,8,0v1h-.171a1,1,0,0,1-.708-.293l-1.414-1.414a1,1,0,0,0-1.414,0l-.829.829A3.02,3.02,0,0,1,9.343,26H8Zm5,9.586-1,1-1-1V33.9a5,5,0,0,0,2,0ZM12,32a3,3,0,0,1-3-3V28h.343a4.966,4.966,0,0,0,3.535-1.464L13,26.414l.707.707A2.96,2.96,0,0,0,15,27.87V29A3,3,0,0,1,12,32ZM4,36.119V27.883l2.224-.278A.983.983,0,0,0,7,28v1a4.977,4.977,0,0,0,2,3.974v1.1a6.985,6.985,0,0,0-4.111,2.16ZM5,41a4.991,4.991,0,0,1,4.624-4.962l1.669,1.669a1,1,0,0,0,1.414,0l1.669-1.669A4.991,4.991,0,0,1,19,41v2H5Zm49.708,7.888-5.821,5.82-4.673-3.637A1,1,0,0,0,43.1,51a22.09,22.09,0,0,1-5.51,2.286,1,1,0,0,0-.737.843L36.117,60H27.883l-.731-5.874a1,1,0,0,0-.737-.843A22.121,22.121,0,0,1,20.9,51a1,1,0,0,0-1.118.074l-4.674,3.637-5.82-5.82L12.319,45H20a1,1,0,0,0,1-1V41a7.011,7.011,0,0,0-6-6.929v-1.1A4.977,4.977,0,0,0,17,29V28a1,1,0,0,0,1-1V25a6,6,0,0,0-5.666-5.983l-3.042-3.9,5.82-5.82,4.674,3.637A1,1,0,0,0,20.9,13a22.121,22.121,0,0,1,5.511-2.286,1,1,0,0,0,.737-.843L27.883,4h8.234l.731,5.874a1,1,0,0,0,.737.843A22.09,22.09,0,0,1,43.1,13a1,1,0,0,0,1.119-.074l4.673-3.637,5.821,5.82-3.042,3.9A6,6,0,0,0,46,25v2a1,1,0,0,0,1,1v1a4.977,4.977,0,0,0,2,3.974v1.1A7.011,7.011,0,0,0,43,41v3a1,1,0,0,0,1,1h7.681ZM59,43H45V41a4.991,4.991,0,0,1,4.624-4.962l1.669,1.669a1,1,0,0,0,1.414,0l1.669-1.669A4.991,4.991,0,0,1,59,41Zm-4-8.929v-1.1A4.977,4.977,0,0,0,57,29V28a.983.983,0,0,0,.776-.395L60,27.883v8.236l-.889.112A6.985,6.985,0,0,0,55,34.071Z"/><rect x="31" y="8" width="2" height="2"/><rect x="14.737" y="14.736" width="2" height="2" transform="translate(-6.518 15.737) rotate(-45)"/><rect x="14.736" y="47.264" width="2" height="2" transform="translate(-29.518 25.263) rotate(-45)"/><rect x="31" y="54" width="2" height="2"/><rect x="47.264" y="47.263" width="2" height="2" transform="translate(-19.991 48.252) rotate(-44.99)"/><rect x="47.264" y="14.737" width="2" height="2" transform="translate(3.009 38.737) rotate(-45)"/><path d="M32,17a14.935,14.935,0,0,1,11.715,5.625l1.56-1.25a17.01,17.01,0,0,0-26.551,0l1.562,1.25A14.929,14.929,0,0,1,32,17Z"/><path d="M41,43.992V41a7.011,7.011,0,0,0-6-6.929v-1.1A4.977,4.977,0,0,0,37,29V28a1,1,0,0,0,1-1V25a6,6,0,0,0-12,0v2a1,1,0,0,0,1,1v1a4.977,4.977,0,0,0,2,3.974v1.1A7.011,7.011,0,0,0,23,41v2.992c-.124-.094-.253-.178-.375-.276l-1.25,1.561a17.023,17.023,0,0,0,21.25,0l-1.25-1.561C41.253,43.814,41.124,43.9,41,43.992ZM28,25a4,4,0,0,1,8,0v1h-.172a1.009,1.009,0,0,1-.707-.293l-1.414-1.414a1,1,0,0,0-1.414,0l-.829.829A3.02,3.02,0,0,1,29.343,26H28Zm1.343,3a4.966,4.966,0,0,0,3.535-1.464L33,26.414l.707.707A2.96,2.96,0,0,0,35,27.87V29a3,3,0,0,1-6,0V28ZM32,34a5,5,0,0,0,1-.1v.687l-1,1-1-1V33.9A5,5,0,0,0,32,34Zm-7,7a4.991,4.991,0,0,1,4.624-4.962l1.669,1.669a1,1,0,0,0,1.414,0l1.669-1.669A4.991,4.991,0,0,1,39,41v2H25Zm-.485,4h14.97a15.006,15.006,0,0,1-14.97,0Z"/></g></svg>
